<svg width="80" height="80" viewBox="0 0 80 80" fill="none" xmlns="http://www.w3.org/2000/svg">
<path d="M24.2852 22.6184C21.2361 23.1311 18.9114 25.5135 17.3099 29.7559C15.6713 34.5074 15.2589 39.585 16.0627 44.9899C16.1966 45.6355 16.2743 45.6847 16.307 45.146C16.6481 41.036 17.1546 37.7887 17.8251 35.3942C18.4744 32.9927 19.2909 30.98 20.2677 29.3774C22.532 25.8148 24.8161 24.9597 27.1299 26.8106C29.687 29.0193 31.4695 33.1135 32.4748 39.0737C33.5225 47.1336 33.348 53.3655 31.9541 57.7894C30.1871 63.1842 27.8646 65.2339 25.0133 63.9143C21.05 61.5972 18.1664 55.6071 16.3651 45.9638C16.1783 45.6483 16.0858 45.9136 16.1073 46.7568C16.0658 47.7906 16.0977 48.9144 16.189 50.1002C16.6571 55.4128 18.0059 59.7816 20.2256 63.2079C22.4577 66.441 25.0131 67.8741 27.8934 67.5169C30.9849 67.0183 33.5139 64.5861 35.4874 60.1991C37.4254 55.6359 38.3223 50.2866 38.1656 44.1328C37.4991 37.6601 35.8366 32.3091 33.1879 28.0784C30.5509 24.0677 27.5956 22.2392 24.3317 22.5916" fill="url(#paint0_linear_140_3)"/>
<path d="M46.6365 16.9395C44.6699 14.5646 41.4459 13.7323 36.9673 14.4623C32.0379 15.4188 27.4269 17.5987 23.1442 21.0006C22.653 21.4346 22.6475 21.5361 23.1265 21.2954C26.8612 19.5347 29.9231 18.3451 32.3233 17.7351C34.7292 17.0941 36.872 16.7935 38.7533 16.8431C42.9716 17.0275 44.8588 18.5776 44.4067 21.5047C43.7691 24.8214 41.1156 28.4102 36.456 32.2698C29.9978 37.2062 24.5141 40.1777 19.9938 41.1757C14.4302 42.3451 11.5062 41.3585 11.2233 38.2256C11.2715 33.6241 15.0097 28.1348 22.4562 21.7452C22.6318 21.4276 22.3583 21.4874 21.6457 21.9232C20.7287 22.4088 19.7752 22.9904 18.7853 23.6679C14.4229 26.7287 11.3021 30.083 9.4511 33.7167C7.76912 37.2654 7.80206 40.2028 9.54706 42.509C11.5208 44.9332 14.896 45.9049 19.6825 45.4224C24.6028 44.8198 29.6882 42.9238 34.9344 39.7046C40.2048 35.8875 44.0122 31.7787 46.3452 27.3698C48.5037 23.0769 48.605 19.6062 46.6689 16.9549" fill="url(#paint1_linear_140_3)"/>
<path d="M62.7349 33.4571C63.8062 30.5612 62.9181 27.3549 60.041 23.8425C56.7403 20.0489 52.5516 17.1499 47.4651 15.1468C46.8399 14.9351 46.7554 14.9776 47.2017 15.2756C50.5953 17.625 53.152 19.6926 54.8888 21.4559C56.6468 23.2263 57.9816 24.927 58.8763 26.5807C60.8302 30.3277 60.4235 32.7343 57.6659 33.7991C54.4714 34.9072 50.0451 34.4003 44.3704 32.3011C36.8743 29.1763 31.5539 25.9074 28.4204 22.5027C24.6322 18.2659 24.0223 15.241 26.5907 13.4277C30.5839 11.156 37.2057 11.6569 46.4648 14.919C46.8258 14.907 46.6448 14.7015 45.9023 14.3053C45.0254 13.7473 44.0414 13.2149 42.9587 12.6968C38.1283 10.445 33.6685 9.42913 29.5879 9.63791C25.6739 9.95353 23.15 11.448 22.0161 14.1212C20.8983 17.0441 21.7459 20.4578 24.5575 24.3525C27.5399 28.3131 31.7283 31.7663 37.1313 34.7009C43.0681 37.3566 48.538 38.5988 53.5184 38.4107C58.3138 38.1285 61.3804 36.4848 62.6982 33.4826" fill="url(#paint2_linear_140_3)"/>
<path d="M56.4816 55.6538C59.5307 55.1412 61.8554 52.7588 63.4569 48.5164C65.0955 43.7648 65.5079 38.6873 64.7041 33.2823C64.5702 32.6367 64.4925 32.5876 64.4598 33.1263C64.1187 37.2363 63.6122 40.4836 62.9417 42.8781C62.2924 45.2796 61.4759 47.2923 60.4992 48.8949C58.2348 52.4575 55.9507 53.3126 53.6369 51.4617C51.0799 49.253 49.2973 45.1587 48.292 39.1986C47.2443 31.1387 47.4188 24.9067 48.8127 20.4829C50.5797 15.088 52.9022 13.0384 55.7535 14.358C59.7168 16.6751 62.6005 22.6652 64.4017 32.3085C64.5885 32.624 64.681 32.3587 64.6595 31.5155C64.7011 30.4817 64.6691 29.3579 64.5778 28.1721C64.1098 22.8595 62.7609 18.4907 60.5412 15.0644C58.3091 11.8313 55.7537 10.3982 52.8734 10.7554C49.7819 11.254 47.2529 13.6862 45.2794 18.0732C43.3415 22.6364 42.4445 27.9857 42.6012 34.1394C43.2677 40.6122 44.9302 45.9632 47.5789 50.1939C50.2159 54.2046 53.1713 56.033 56.4351 55.6807" fill="url(#paint3_linear_140_3)"/>
<path d="M18.0329 44.8153C16.9616 47.7112 17.8497 50.9175 20.7268 54.4299C24.0275 58.2235 28.2162 61.1225 33.3027 63.1256C33.9279 63.3372 34.0124 63.2948 33.5661 62.9967C30.1725 60.6474 27.6158 58.5798 25.879 56.8165C24.121 55.0461 22.7862 53.3454 21.8915 51.6917C19.9376 47.9447 20.3443 45.5381 23.1019 44.4733C26.2964 43.3652 30.7227 43.8721 36.3974 45.9713C43.8935 49.0961 49.2139 52.365 52.3474 55.7697C56.1356 60.0064 56.7455 63.0314 54.1771 64.8447C50.1839 67.1164 43.5621 66.6155 34.303 63.3534C33.942 63.3654 34.1229 63.5709 34.8655 63.967C35.7424 64.5251 36.7264 65.0575 37.8091 65.5755C42.6395 67.8274 47.0992 68.8433 51.1799 68.6345C55.0939 68.3189 57.6178 66.8244 58.7517 64.1511C59.8695 61.2283 59.0219 57.8146 56.2103 53.9199C53.2279 49.9593 49.0395 46.5061 43.6365 43.5715C37.6997 40.9158 32.2298 39.6736 27.2494 39.8617C22.454 40.1439 19.3874 41.7876 18.0696 44.7898" fill="url(#paint4_linear_140_3)"/>
<path d="M34.1313 61.3329C36.0978 63.7078 39.3218 64.5401 43.8005 63.8101C48.7299 62.8535 53.3409 60.6736 57.6235 57.2717C58.1148 56.8378 58.1202 56.7362 57.6413 56.977C53.9065 58.7377 50.8447 59.9272 48.4444 60.5372C46.0386 61.1782 43.8957 61.4789 42.0144 61.4292C37.7962 61.2448 35.9089 59.6948 36.3611 56.7677C36.9986 53.451 39.6521 49.8622 44.3118 46.0026C50.77 41.0661 56.2536 38.0946 60.774 37.0966C66.3376 35.9272 69.2615 36.9139 69.5445 40.0467C69.5146 44.6356 65.7764 50.1248 58.32 56.5158C58.1444 56.8335 58.4178 56.7737 59.1305 56.3379C60.0475 55.8523 61.001 55.2707 61.9909 54.5931C66.3533 51.5323 69.4741 48.178 71.3251 44.5443C73.0071 40.9956 72.9741 38.0583 71.2291 35.752C69.2554 33.3278 65.8802 32.3562 61.1035 32.8372C56.1832 33.4398 51.0978 35.3358 45.8516 38.555C40.5813 42.3721 36.7739 46.4809 34.4408 50.8898C32.2823 55.1827 32.181 58.6534 34.1171 61.3047" fill="url(#paint5_linear_140_3)"/>
<defs>
<linearGradient id="paint0_linear_140_3" x1="38.8398" y1="42.1812" x2="11.1295" y2="46.199" gradientUnits="userSpaceOnUse">
<stop offset="0.5" stop-color="#262626"/>
<stop offset="1" stop-color="#D4D4D4"/>
</linearGradient>
<linearGradient id="paint1_linear_140_3" x1="16.5164" y1="18.3041" x2="32.7324" y2="40.7091" gradientUnits="userSpaceOnUse">
<stop stop-color="#D4D4D4"/>
<stop offset="0.588542" stop-color="#262626"/>
</linearGradient>
<linearGradient id="paint2_linear_140_3" x1="50.3174" y1="7.50887" x2="44.1113" y2="37.8804" gradientUnits="userSpaceOnUse">
<stop stop-color="#D4D4D4"/>
<stop offset="0.567708" stop-color="#262626"/>
</linearGradient>
<linearGradient id="paint3_linear_140_3" x1="41.2997" y1="34.7514" x2="69.0099" y2="30.7336" gradientUnits="userSpaceOnUse">
<stop offset="0.572917" stop-color="#262626"/>
<stop offset="1" stop-color="#D4D4D4"/>
</linearGradient>
<linearGradient id="paint4_linear_140_3" x1="36.1103" y1="38.4976" x2="40.7051" y2="70.1877" gradientUnits="userSpaceOnUse">
<stop offset="0.671875" stop-color="#262626"/>
<stop offset="1" stop-color="#D4D4D4"/>
</linearGradient>
<linearGradient id="paint5_linear_140_3" x1="43.609" y1="34.4166" x2="54.6566" y2="62.2396" gradientUnits="userSpaceOnUse">
<stop offset="0.520833" stop-color="#262626"/>
<stop offset="1" stop-color="#D4D4D4"/>
</linearGradient>
</defs>
</svg>
