<svg width="145" height="119" viewBox="0 0 145 119" fill="none" xmlns="http://www.w3.org/2000/svg">
<rect width="145" height="119" fill="white"/>
<path d="M54.3565 36.273C50.5451 36.9139 47.6393 39.8919 45.6374 45.1949C43.5891 51.1343 43.0736 57.4813 44.0784 64.2374C44.2458 65.0444 44.3429 65.1059 44.3838 64.4325C44.8101 59.295 45.4433 55.2359 46.2814 52.2428C47.093 49.2409 48.1136 46.725 49.3346 44.7218C52.165 40.2685 55.0201 39.1996 57.9124 41.5133C61.1088 44.2741 63.3369 49.3919 64.5935 56.8421C65.9031 66.917 65.685 74.7069 63.9426 80.2368C61.7339 86.9803 58.8308 89.5424 55.2666 87.8929C50.3125 84.9965 46.708 77.5089 44.4564 65.4548C44.2229 65.0604 44.1073 65.392 44.1341 66.446C44.0823 67.7383 44.1221 69.143 44.2363 70.6253C44.8214 77.266 46.5074 82.727 49.282 87.0099C52.0721 91.0513 55.2664 92.8426 58.8668 92.3961C62.7311 91.7729 65.8924 88.7326 68.3593 83.2489C70.7818 77.5449 71.9029 70.8583 71.707 63.166C70.8739 55.0751 68.7958 48.3864 65.4849 43.098C62.1886 38.0846 58.4945 35.799 54.4146 36.2395" fill="url(#paint0_linear_101_27)"/>
<path d="M82.2956 29.1744C79.8374 26.2058 75.8074 25.1654 70.2091 26.0779C64.0474 27.2735 58.2836 29.9984 52.9303 34.2508C52.3163 34.7933 52.3094 34.9201 52.9081 34.6193C57.5765 32.4184 61.4039 30.9314 64.4041 30.1689C67.4115 29.3676 70.09 28.9919 72.4416 29.0539C77.7145 29.2844 80.0735 31.222 79.5084 34.8809C78.7114 39.0268 75.3945 43.5127 69.57 48.3372C61.4973 54.5077 54.6426 58.2221 48.9923 59.4696C42.0378 60.9314 38.3828 59.6981 38.0291 55.782C38.0894 50.0301 42.7621 43.1685 52.0703 35.1815C52.2898 34.7845 51.9479 34.8593 51.0571 35.404C49.9109 36.011 48.719 36.738 47.4816 37.5849C42.0286 41.4109 38.1276 45.6038 35.8139 50.1459C33.7114 54.5818 33.7526 58.2535 35.9338 61.1363C38.401 64.1665 42.62 65.3811 48.6031 64.778C54.7535 64.0248 61.1103 61.6548 67.668 57.6308C74.256 52.8594 79.0153 47.7234 81.9315 42.2123C84.6296 36.8461 84.7563 32.5078 82.3361 29.1936" fill="url(#paint1_linear_101_27)"/>
<path d="M102.419 49.8214C103.758 46.2015 102.648 42.1936 99.0512 37.8031C94.9254 33.0611 89.6895 29.4374 83.3314 26.9335C82.5499 26.6689 82.4442 26.722 83.0021 27.0945C87.2441 30.0313 90.44 32.6158 92.611 34.8199C94.8085 37.0329 96.477 39.1588 97.5954 41.2259C100.038 45.9096 99.5294 48.9179 96.0824 50.2489C92.0892 51.634 86.5564 51.0004 79.463 48.3764C70.0929 44.4704 63.4424 40.3843 59.5255 36.1284C54.7902 30.8324 54.0279 27.0513 57.2384 24.7846C62.2299 21.945 70.5071 22.5711 82.081 26.6488C82.5322 26.6338 82.306 26.3769 81.3779 25.8816C80.2817 25.1841 79.0517 24.5186 77.6984 23.871C71.6604 21.0563 66.0856 19.7864 60.9849 20.0474C56.0924 20.4419 52.9375 22.31 51.5201 25.6515C50.1229 29.3051 51.1824 33.5723 54.6969 38.4406C58.4249 43.3914 63.6604 47.7079 70.4141 51.3761C77.8351 54.6958 84.6725 56.2485 90.898 56.0134C96.8922 55.6606 100.725 53.606 102.373 49.8533" fill="url(#paint2_linear_101_27)"/>
<path d="M94.602 77.5672C98.4134 76.9265 101.319 73.9485 103.321 68.6455C105.369 62.706 105.885 56.3591 104.88 49.6029C104.713 48.7959 104.616 48.7345 104.575 49.4079C104.148 54.5454 103.515 58.6045 102.677 61.5976C101.866 64.5995 100.845 67.1154 99.624 69.1186C96.7935 73.5719 93.9384 74.6407 91.0462 72.3271C87.8499 69.5662 85.6217 64.4484 84.365 56.9982C83.0554 46.9234 83.2735 39.1334 85.0159 33.6036C87.2247 26.86 90.1278 24.298 93.6919 25.9475C98.646 28.8439 102.251 36.3315 104.502 48.3856C104.736 48.78 104.851 48.4484 104.824 47.3944C104.876 46.1021 104.836 44.6974 104.722 43.2151C104.137 36.5744 102.451 31.1134 99.6765 26.8305C96.8864 22.7891 93.6922 20.9977 90.0918 21.4442C86.2274 22.0675 83.0662 25.1077 80.5993 30.5915C78.1769 36.2955 77.0557 42.9821 77.2515 50.6742C78.0847 58.7652 80.1628 65.454 83.4737 70.7424C86.7699 75.7557 90.4642 78.0412 94.5439 77.6009" fill="url(#paint3_linear_101_27)"/>
<path d="M46.5411 64.0191C45.202 67.639 46.3121 71.6469 49.9085 76.0374C54.0344 80.7794 59.2702 84.4031 65.6284 86.907C66.4099 87.1715 66.5155 87.1185 65.9576 86.7459C61.7156 83.8093 58.5197 81.2248 56.3487 79.0206C54.1512 76.8076 52.4827 74.6817 51.3644 72.6146C48.922 67.9309 49.4304 64.9226 52.8774 63.5916C56.8705 62.2065 62.4034 62.8401 69.4967 65.4641C78.8669 69.3701 85.5174 73.4562 89.4342 77.7121C94.1695 83.008 94.9319 86.7893 91.7214 89.0559C86.7299 91.8955 78.4526 91.2694 66.8787 87.1918C66.4275 87.2068 66.6536 87.4636 67.5819 87.9587C68.678 88.6564 69.908 89.3219 71.2614 89.9694C77.2994 92.7843 82.874 94.0541 87.9749 93.7931C92.8674 93.3986 96.0222 91.5305 97.4396 88.1889C98.8369 84.5354 97.7774 80.2682 94.2629 75.3999C90.5349 70.4491 85.2994 66.1326 78.5456 62.4644C71.1246 59.1447 64.2872 57.592 58.0617 57.8271C52.0675 58.1799 48.2342 60.2345 46.587 63.9872" fill="url(#paint4_linear_101_27)"/>
<path d="M66.6641 84.6661C69.1223 87.6348 73.1523 88.6751 78.7506 87.7626C84.9124 86.5669 90.6761 83.842 96.0294 79.5896C96.6435 79.0473 96.6503 78.9203 96.0516 79.2213C91.3831 81.4221 87.5559 82.909 84.5555 83.6715C81.5483 84.4728 78.8696 84.8486 76.518 84.7865C71.2453 84.556 68.8861 82.6185 69.4514 78.9596C70.2483 74.8138 73.5651 70.3278 79.3898 65.5033C87.4625 59.3326 94.317 55.6183 99.9675 54.3708C106.922 52.909 110.577 54.1424 110.931 58.0584C110.893 63.7945 106.221 70.656 96.9 78.6448C96.6805 79.0419 97.0223 78.9671 97.9131 78.4224C99.0594 77.8154 100.251 77.0884 101.489 76.2414C106.942 72.4154 110.843 68.2225 113.156 63.6804C115.259 59.2445 115.218 55.5729 113.036 52.69C110.569 49.6598 106.35 48.4453 100.379 49.0465C94.229 49.7998 87.8723 52.1698 81.3145 56.1938C74.7266 60.9651 69.9674 66.1011 67.051 71.6123C64.3529 76.9784 64.2263 81.3168 66.6464 84.6309" fill="url(#paint5_linear_101_27)"/>
<defs>
<linearGradient id="paint0_linear_101_27" x1="72.5498" y1="60.7265" x2="37.9119" y2="65.7488" gradientUnits="userSpaceOnUse">
<stop offset="0.5" stop-color="#262626"/>
<stop offset="1" stop-color="#D4D4D4"/>
</linearGradient>
<linearGradient id="paint1_linear_101_27" x1="44.6455" y1="30.8801" x2="64.9155" y2="58.8864" gradientUnits="userSpaceOnUse">
<stop stop-color="#D4D4D4"/>
<stop offset="0.588542" stop-color="#262626"/>
</linearGradient>
<linearGradient id="paint2_linear_101_27" x1="86.8967" y1="17.3861" x2="79.1391" y2="55.3505" gradientUnits="userSpaceOnUse">
<stop stop-color="#D4D4D4"/>
<stop offset="0.567708" stop-color="#262626"/>
</linearGradient>
<linearGradient id="paint3_linear_101_27" x1="75.6247" y1="51.4392" x2="110.262" y2="46.417" gradientUnits="userSpaceOnUse">
<stop offset="0.572917" stop-color="#262626"/>
<stop offset="1" stop-color="#D4D4D4"/>
</linearGradient>
<linearGradient id="paint4_linear_101_27" x1="69.1379" y1="56.122" x2="74.8814" y2="95.7346" gradientUnits="userSpaceOnUse">
<stop offset="0.671875" stop-color="#262626"/>
<stop offset="1" stop-color="#D4D4D4"/>
</linearGradient>
<linearGradient id="paint5_linear_101_27" x1="78.5113" y1="51.0208" x2="92.3208" y2="85.7995" gradientUnits="userSpaceOnUse">
<stop offset="0.520833" stop-color="#262626"/>
<stop offset="1" stop-color="#D4D4D4"/>
</linearGradient>
</defs>
</svg>
