<svg width="115" height="115" viewBox="0 0 115 115" fill="none" xmlns="http://www.w3.org/2000/svg">
<rect width="115" height="115" fill="white"/>
<path d="M32.9758 29.0274C28.2374 29.8957 24.6248 33.9302 22.136 41.1146C19.5896 49.1612 18.9487 57.76 20.1978 66.9131C20.4059 68.0064 20.5267 68.0897 20.5775 67.1775C21.1076 60.2173 21.8947 54.718 22.9366 50.663C23.9457 46.5961 25.2145 43.1876 26.7325 40.4736C30.2513 34.4404 33.8008 32.9924 37.3965 36.1268C41.3703 39.8672 44.1403 46.8007 45.7026 56.8941C47.3307 70.5434 47.0596 81.097 44.8934 88.5888C42.1475 97.7248 38.5382 101.196 34.1073 98.9612C27.9482 95.0373 23.467 84.8931 20.6678 68.5624C20.3775 68.0281 20.2337 68.4774 20.2671 69.9053C20.2026 71.6561 20.2522 73.5592 20.3941 75.5673C21.1215 84.5641 23.2176 91.9626 26.6671 97.765C30.1358 103.24 34.1069 105.667 38.583 105.062C43.3873 104.218 47.3174 100.099 50.3842 92.6696C53.3959 84.9419 54.7897 75.883 54.5462 65.4616C53.5105 54.5002 50.9269 45.4384 46.8108 38.2738C42.7128 31.4818 38.1202 28.3852 33.048 28.982" fill="url(#paint0_linear_101_29)"/>
<path d="M67.7102 19.4103C64.654 15.3884 59.6439 13.979 52.684 15.2152C45.0236 16.835 37.858 20.5266 31.2026 26.2877C30.4393 27.0227 30.4307 27.1945 31.1751 26.7869C36.9789 23.8052 41.7372 21.7906 45.4671 20.7576C49.206 19.6721 52.5359 19.163 55.4595 19.247C62.0148 19.5593 64.9476 22.1844 64.245 27.1414C63.2542 32.7581 59.1306 38.8357 51.8894 45.3719C41.8533 53.7316 33.3315 58.7637 26.3068 60.4538C17.6609 62.4342 13.1169 60.7634 12.6773 55.4579C12.7522 47.6653 18.5614 38.3693 30.1334 27.5487C30.4063 27.0108 29.9813 27.1121 28.8739 27.8501C27.4489 28.6724 25.9671 29.6574 24.4288 30.8047C17.6495 35.9881 12.7997 41.6686 9.92324 47.8222C7.30941 53.8318 7.3606 58.8063 10.0724 62.7118C13.1396 66.8171 18.3847 68.4627 25.8231 67.6455C33.4693 66.6251 41.3721 63.4142 49.5248 57.9626C57.7152 51.4984 63.6319 44.5402 67.2575 37.0738C70.6118 29.8039 70.7692 23.9263 67.7605 19.4364" fill="url(#paint1_linear_101_29)"/>
<path d="M92.7274 47.3825C94.3922 42.4784 93.0121 37.0486 88.541 31.1004C83.4117 24.676 76.9023 19.7666 68.9978 16.3744C68.0262 16.0159 67.8949 16.0879 68.5885 16.5925C73.8622 20.5712 77.8354 24.0726 80.5344 27.0587C83.2664 30.0569 85.3407 32.937 86.7311 35.7375C89.7675 42.083 89.1354 46.1585 84.8501 47.9617C79.8857 49.8383 73.0072 48.9798 64.1886 45.4249C52.5395 40.1331 44.2715 34.5973 39.4019 28.8315C33.515 21.6565 32.5672 16.5339 36.5585 13.4631C42.7641 9.61605 53.0545 10.4643 67.4433 15.9886C68.0043 15.9683 67.723 15.6203 66.5692 14.9493C65.2065 14.0044 63.6773 13.1028 61.9948 12.2254C54.4882 8.41199 47.5576 6.69163 41.2162 7.0452C35.1338 7.57969 31.2116 10.1105 29.4495 14.6376C27.7124 19.5874 29.0296 25.3685 33.3989 31.9641C38.0336 38.6713 44.5425 44.5192 52.9389 49.4889C62.1648 53.9863 70.6651 56.0899 78.4048 55.7714C85.8569 55.2935 90.6225 52.5099 92.6704 47.4257" fill="url(#paint2_linear_101_29)"/>
<path d="M83.0097 84.9722C87.7481 84.1041 91.3607 80.0696 93.8495 72.8852C96.3959 64.8384 97.0368 56.2398 95.7877 47.0865C95.5796 45.9932 95.4588 45.91 95.408 46.8223C94.8779 53.7825 94.0908 59.2818 93.0489 63.3368C92.0398 67.4037 90.771 70.8122 89.2532 73.5261C85.7342 79.5593 82.1847 81.0074 78.589 77.873C74.6154 74.1326 71.8452 67.199 70.2829 57.1056C68.6548 43.4564 68.9259 32.9026 71.0921 25.411C73.838 16.2748 77.4473 12.8038 81.8782 15.0386C88.0373 18.9625 92.5186 29.1066 95.3177 45.4374C95.608 45.9717 95.7518 45.5224 95.7183 44.0945C95.783 42.3437 95.7333 40.4406 95.5914 38.4325C94.8641 29.4357 92.7679 22.0372 89.3184 16.2348C85.8497 10.7596 81.8785 8.33271 77.4025 8.93762C72.5982 9.78199 68.6681 13.9009 65.6013 21.3302C62.5897 29.0579 61.1958 38.1168 61.4393 48.538C62.475 59.4996 65.0586 68.5614 69.1747 75.726C73.2727 82.518 77.8654 85.6144 82.9375 85.0178" fill="url(#paint3_linear_101_29)"/>
<path d="M23.2595 66.6174C21.5947 71.5216 22.9748 76.9514 27.4459 82.8996C32.5752 89.324 39.0846 94.2334 46.9891 97.6256C47.9607 97.9839 48.092 97.9121 47.3984 97.4073C42.1247 93.4288 38.1515 89.9274 35.4525 86.9412C32.7205 83.9431 30.6462 81.063 29.2558 78.2625C26.2194 71.917 26.8515 67.8415 31.1368 66.0383C36.1012 64.1617 42.9797 65.0201 51.7983 68.5751C63.4474 73.8669 71.7154 79.4027 76.585 85.1685C82.4719 92.3433 83.4197 97.4661 79.4284 100.537C73.2228 104.384 62.9324 103.536 48.5436 98.0114C47.9826 98.0317 48.2637 98.3797 49.4177 99.0505C50.7804 99.9956 52.3096 100.897 53.9921 101.774C61.4987 105.588 68.4292 107.308 74.7707 106.955C80.8531 106.42 84.7753 103.889 86.5374 99.3622C88.2745 94.4125 86.9573 88.6315 82.588 82.0359C77.9533 75.3287 71.4444 69.4808 63.048 64.5111C53.8221 60.0137 45.3218 57.9101 37.5821 58.2286C30.13 58.7065 25.3644 61.4901 23.3165 66.5742" fill="url(#paint4_linear_101_29)"/>
<path d="M48.2768 94.5897C51.3328 98.6115 56.3429 100.021 63.3029 98.7848C70.9633 97.1648 78.1289 93.4732 84.7842 87.7121C85.5477 86.9773 85.5561 86.8053 84.8118 87.2131C79.0079 90.1948 74.2498 92.2092 70.5197 93.2422C66.781 94.3277 63.4509 94.8369 60.5273 94.7528C53.9721 94.4405 51.0392 91.8156 51.7419 86.8586C52.7326 81.2418 56.8562 75.1643 64.0975 68.6281C74.1337 60.2682 82.6553 55.2361 89.6801 53.546C98.3261 51.5656 102.87 53.2366 103.31 58.5419C103.263 66.3131 97.454 75.609 85.8665 86.432C85.5937 86.97 86.0185 86.8688 87.1261 86.1307C88.5511 85.3084 90.0329 84.3235 91.5712 83.176C98.3505 77.9926 103.2 72.3121 106.077 66.1585C108.691 60.1489 108.639 55.1746 105.928 51.2689C102.86 47.1636 97.6153 45.5182 90.1922 46.3328C82.5459 47.3532 74.6431 50.5641 66.4904 56.0157C58.3002 62.4799 52.3834 69.4381 48.7578 76.9045C45.4034 84.1744 45.246 90.052 48.2547 94.5419" fill="url(#paint5_linear_101_29)"/>
<defs>
<linearGradient id="paint0_linear_101_29" x1="55.5939" y1="62.1566" x2="12.3911" y2="67.9049" gradientUnits="userSpaceOnUse">
<stop offset="0.5" stop-color="#262626"/>
<stop offset="1" stop-color="#D4D4D4"/>
</linearGradient>
<linearGradient id="paint1_linear_101_29" x1="20.9029" y1="21.7212" x2="49.0164" y2="57.3657" gradientUnits="userSpaceOnUse">
<stop stop-color="#D4D4D4"/>
<stop offset="0.588542" stop-color="#262626"/>
</linearGradient>
<linearGradient id="paint2_linear_101_29" x1="73.4303" y1="3.43971" x2="62.0627" y2="54.4896" gradientUnits="userSpaceOnUse">
<stop stop-color="#D4D4D4"/>
<stop offset="0.567708" stop-color="#262626"/>
</linearGradient>
<linearGradient id="paint3_linear_101_29" x1="59.4167" y1="49.5744" x2="102.619" y2="43.8261" gradientUnits="userSpaceOnUse">
<stop offset="0.572917" stop-color="#262626"/>
<stop offset="1" stop-color="#D4D4D4"/>
</linearGradient>
<linearGradient id="paint4_linear_101_29" x1="51.3522" y1="55.9185" x2="59.7991" y2="109.379" gradientUnits="userSpaceOnUse">
<stop offset="0.671875" stop-color="#262626"/>
<stop offset="1" stop-color="#D4D4D4"/>
</linearGradient>
<linearGradient id="paint5_linear_101_29" x1="63.0053" y1="49.0074" x2="82.8854" y2="94.9517" gradientUnits="userSpaceOnUse">
<stop offset="0.520833" stop-color="#262626"/>
<stop offset="1" stop-color="#D4D4D4"/>
</linearGradient>
</defs>
</svg>
